<?xml version="1.0" encoding="UTF-8" standalone="no"?>
<!-- Created with Inkscape (http://www.inkscape.org/) -->

<svg version="1.1" id="svg2" width="600" height="600" viewBox="0 0 600 600"
   sodipodi:docname="1602.m00.i125.n019.P.c25.261661412 Washing machine. Vector washing machine and wash clothes illustration.eps"
   xmlns:inkscape="http://www.inkscape.org/namespaces/inkscape"
   xmlns:sodipodi="http://sodipodi.sourceforge.net/DTD/sodipodi-0.dtd" xmlns="http://www.w3.org/2000/svg"
   xmlns:svg="http://www.w3.org/2000/svg">
   <defs id="defs6" />
   <sodipodi:namedview id="namedview4" pagecolor="" bordercolor="#000000" borderopacity="0.25"
      inkscape:showpageshadow="2" inkscape:pageopacity="0.0" inkscape:pagecheckerboard="0"
      inkscape:deskcolor="#d1d1d1" />
   <g id="g8" inkscape:groupmode="layer" inkscape:label="ink_ext_XXXXXX"
      transform="matrix(1.3333333,0,0,-1.3333333,0,600)">
      <g id="g10" transform="scale(0.1)">
         <path d="M 4500,0 H 0 V 4500 H 4500 V 0" style="fill:#ffffff;fill-opacity:1;fill-rule:nonzero;stroke:none"
            id="path12" />
         <path
            d="m 1405.28,3184.76 c 0,-49.82 -40.39,-90.21 -90.22,-90.21 -49.82,0 -90.21,40.39 -90.21,90.21 0,49.83 40.39,90.22 90.21,90.22 49.83,0 90.22,-40.39 90.22,-90.22"
            style="fill:#c4eff6;fill-opacity:1;fill-rule:nonzero;stroke:none" id="path14" />
         <path
            d="m 1371.84,3205.77 c 0,-35.69 -28.92,-64.61 -64.61,-64.61 -35.68,0 -64.61,28.92 -64.61,64.61 0,35.68 28.93,64.61 64.61,64.61 35.69,0 64.61,-28.93 64.61,-64.61"
            style="fill:#d9f6f9;fill-opacity:1;fill-rule:nonzero;stroke:none" id="path16" />
         <path
            d="m 1326.03,3254.78 c 4.37,-10.99 -6.71,-25.71 -24.74,-32.87 -18.03,-7.17 -36.19,-4.08 -40.56,6.91 -4.37,10.99 6.71,25.71 24.74,32.88 18.03,7.16 36.19,4.07 40.56,-6.92"
            style="fill:#ffffff;fill-opacity:1;fill-rule:nonzero;stroke:none" id="path18" />
         <path
            d="m 1358.7,3120.07 c 1.45,-3.65 -3.22,-8.93 -10.43,-11.79 -7.21,-2.87 -14.23,-2.24 -15.68,1.41 -1.45,3.65 3.22,8.93 10.43,11.79 7.21,2.87 14.23,2.23 15.68,-1.41"
            style="fill:#ffffff;fill-opacity:1;fill-rule:nonzero;stroke:none" id="path20" />
         <path
            d="m 2283.82,3584.72 c 0,-82.62 -66.98,-149.6 -149.6,-149.6 -82.62,0 -149.6,66.98 -149.6,149.6 0,82.62 66.98,149.6 149.6,149.6 82.62,0 149.6,-66.98 149.6,-149.6"
            style="fill:#c4eff6;fill-opacity:1;fill-rule:nonzero;stroke:none" id="path22" />
         <path
            d="m 2228.38,3619.56 c 0,-59.18 -47.98,-107.15 -107.15,-107.15 -59.18,0 -107.15,47.97 -107.15,107.15 0,59.17 47.97,107.15 107.15,107.15 59.17,0 107.15,-47.98 107.15,-107.15"
            style="fill:#d9f6f9;fill-opacity:1;fill-rule:nonzero;stroke:none" id="path24" />
         <path
            d="m 2152.4,3700.83 c 7.24,-18.22 -11.12,-42.63 -41.02,-54.51 -29.9,-11.89 -60.01,-6.76 -67.26,11.47 -7.24,18.21 11.12,42.62 41.02,54.51 29.9,11.88 60.02,6.75 67.26,-11.47"
            style="fill:#ffffff;fill-opacity:1;fill-rule:nonzero;stroke:none" id="path26" />
         <path
            d="m 2206.57,3477.44 c 2.4,-6.05 -5.34,-14.8 -17.29,-19.55 -11.95,-4.75 -23.59,-3.7 -26,2.34 -2.4,6.05 5.34,14.8 17.29,19.56 11.96,4.75 23.6,3.7 26,-2.35"
            style="fill:#ffffff;fill-opacity:1;fill-rule:nonzero;stroke:none" id="path28" />
         <path
            d="m 3346.65,2519.99 c 0,-69.97 -56.72,-126.69 -126.69,-126.69 -69.97,0 -126.7,56.72 -126.7,126.69 0,69.97 56.73,126.69 126.7,126.69 69.97,0 126.69,-56.72 126.69,-126.69"
            style="fill:#c4eff6;fill-opacity:1;fill-rule:nonzero;stroke:none" id="path30" />
         <path
            d="m 3299.7,2549.49 c 0,-50.11 -40.63,-90.74 -90.74,-90.74 -50.12,0 -90.74,40.63 -90.74,90.74 0,50.12 40.62,90.74 90.74,90.74 50.11,0 90.74,-40.62 90.74,-90.74"
            style="fill:#d9f6f9;fill-opacity:1;fill-rule:nonzero;stroke:none" id="path32" />
         <path
            d="m 3235.35,2618.32 c 6.14,-15.43 -9.42,-36.1 -34.74,-46.17 -25.32,-10.06 -50.82,-5.72 -56.95,9.72 -6.14,15.43 9.41,36.1 34.74,46.16 25.32,10.07 50.82,5.72 56.95,-9.71"
            style="fill:#ffffff;fill-opacity:1;fill-rule:nonzero;stroke:none" id="path34" />
         <path
            d="m 3281.23,2429.13 c 2.04,-5.12 -4.52,-12.53 -14.64,-16.55 -10.12,-4.03 -19.98,-3.14 -22.02,1.98 -2.03,5.12 4.52,12.54 14.65,16.56 10.12,4.03 19.98,3.14 22.01,-1.99"
            style="fill:#ffffff;fill-opacity:1;fill-rule:nonzero;stroke:none" id="path36" />
         <path
            d="m 1342.76,2945.32 c 0,-21.94 17.79,-39.72 39.72,-39.72 h 828.96 c 21.94,0 39.72,17.78 39.72,39.72 v 31.95 c 0,21.93 -17.78,39.72 -39.72,39.72 h -828.96 c -21.93,0 -39.72,-17.79 -39.72,-39.72 v -31.95"
            style="fill:#dd401f;fill-opacity:1;fill-rule:nonzero;stroke:none" id="path38" />
         <path
            d="m 1361.04,2989.68 c 0,-11.6 9.4,-21 21,-21 106.84,0 166.62,46.32 436.88,12.96 404.83,-49.96 416.67,-3.56 416.67,8.04 v 0 c 0,11.6 -9.4,21 -21,21 h -832.55 c -11.6,0 -21,-9.4 -21,-21 v 0"
            style="fill:#e55841;fill-opacity:1;fill-rule:nonzero;stroke:none" id="path40" />
         <path
            d="m 2235.51,2931.2 c 0.01,-0.27 0.08,-0.53 0.08,-0.81 0,-11.6 -9.4,-21 -21,-21 h -832.55 c -11.6,0 -21,9.4 -21,21 0,0.12 70.88,20.38 178.89,20.38 95.27,0 183.67,-33.99 455.88,-13.06 96.01,7.39 239.7,-6.51 239.7,-6.51"
            style="fill:#cc2e15;fill-opacity:1;fill-rule:nonzero;stroke:none" id="path42" />
         <path
            d="m 1342.76,3560.3 c 0,-14.38 11.66,-26.04 26.04,-26.04 h 861.63 c 14.38,0 26.04,11.66 26.04,26.04 v 20.95 c 0,14.38 -11.66,26.04 -26.04,26.04 H 1368.8 c -14.38,0 -26.04,-11.66 -26.04,-26.04 v -20.95"
            style="fill:#dd401f;fill-opacity:1;fill-rule:nonzero;stroke:none" id="path44" />
         <path
            d="m 1354.75,3589.39 c 0,-7.6 6.16,-13.77 13.76,-13.77 70.05,0 109.25,30.36 286.44,8.5 265.42,-32.76 591.31,-2.33 591.31,5.27 v 0 c 0,7.61 -6.16,13.77 -13.77,13.77 h -863.98 c -7.6,0 -13.76,-6.16 -13.76,-13.77 v 0"
            style="fill:#e55841;fill-opacity:1;fill-rule:nonzero;stroke:none" id="path46" />
         <path
            d="m 2246.21,3551.05 c 0,-0.18 0.05,-0.35 0.05,-0.53 0,-7.61 -6.16,-13.77 -13.77,-13.77 h -863.98 c -7.6,0 -13.76,6.16 -13.76,13.77 0,0.07 46.47,13.36 117.28,13.36 62.46,0 120.42,-22.29 298.89,-8.56 62.95,4.84 475.29,-4.27 475.29,-4.27"
            style="fill:#cc2e15;fill-opacity:1;fill-rule:nonzero;stroke:none" id="path48" />
         <path
            d="m 1342.76,3154.12 c 0,-14.38 11.66,-26.04 26.04,-26.04 h 861.63 c 14.38,0 26.04,11.66 26.04,26.04 v 20.95 c 0,14.38 -11.66,26.04 -26.04,26.04 H 1368.8 c -14.38,0 -26.04,-11.66 -26.04,-26.04 v -20.95"
            style="fill:#dd401f;fill-opacity:1;fill-rule:nonzero;stroke:none" id="path50" />
         <path
            d="m 1354.75,3183.21 c 0,-7.61 6.16,-13.77 13.76,-13.77 70.05,0 109.25,30.36 286.44,8.49 265.42,-32.75 591.31,-2.33 591.31,5.28 v 0 c 0,7.6 -6.16,13.76 -13.77,13.76 h -863.98 c -7.6,0 -13.76,-6.16 -13.76,-13.76 v 0"
            style="fill:#e55841;fill-opacity:1;fill-rule:nonzero;stroke:none" id="path52" />
         <path
            d="m 2246.21,3144.87 c 0,-0.19 0.05,-0.35 0.05,-0.54 0,-7.6 -6.16,-13.77 -13.77,-13.77 h -863.98 c -7.6,0 -13.76,6.17 -13.76,13.77 0,0.08 46.47,13.37 117.28,13.37 62.46,0 120.42,-22.29 298.89,-8.57 62.95,4.85 475.29,-4.26 475.29,-4.26"
            style="fill:#cc2e15;fill-opacity:1;fill-rule:nonzero;stroke:none" id="path54" />
         <path
            d="m 2251.16,3055.95 c 0,-21.94 -17.78,-39.72 -39.72,-39.72 h -828.96 c -21.93,0 -39.72,17.78 -39.72,39.72 v 31.95 c 0,21.94 17.79,39.72 39.72,39.72 h 828.96 c 21.94,0 39.72,-17.78 39.72,-39.72 v -31.95"
            style="fill:#1fbbdd;fill-opacity:1;fill-rule:nonzero;stroke:none" id="path56" />
         <path
            d="m 2232.88,3100.32 c 0,-11.6 -9.4,-21 -21,-21 -106.84,0 -166.62,46.31 -436.88,12.96 -404.83,-49.97 -416.67,-3.56 -416.67,8.04 v 0 c 0,11.59 9.4,21 21,21 h 832.55 c 11.6,0 21,-9.41 21,-21 v 0"
            style="fill:#41d6e5;fill-opacity:1;fill-rule:nonzero;stroke:none" id="path58" />
         <path
            d="m 1358.41,3041.84 c -0.01,-0.28 -0.08,-0.54 -0.08,-0.81 0,-11.6 9.4,-21 21,-21 h 832.55 c 11.6,0 21,9.4 21,21 0,0.11 -70.88,20.38 -178.89,20.38 -95.26,0 -183.67,-34 -455.88,-13.06 -96.01,7.38 -239.7,-6.51 -239.7,-6.51"
            style="fill:#0fa7d1;fill-opacity:1;fill-rule:nonzero;stroke:none" id="path60" />
         <path
            d="m 1342.76,3240.72 c 0,-21.94 17.79,-39.72 39.72,-39.72 h 828.96 c 21.94,0 39.72,17.78 39.72,39.72 v 31.95 c 0,21.93 -17.78,39.72 -39.72,39.72 h -828.96 c -21.93,0 -39.72,-17.79 -39.72,-39.72 v -31.95"
            style="fill:#dd881f;fill-opacity:1;fill-rule:nonzero;stroke:none" id="path62" />
         <path
            d="m 1361.04,3285.08 c 0,-11.6 9.4,-21 21,-21 106.84,0 166.62,46.32 436.88,12.96 404.83,-49.96 416.67,-3.56 416.67,8.04 v 0 c 0,11.6 -9.4,21 -21,21 h -832.55 c -11.6,0 -21,-9.4 -21,-21 v 0"
            style="fill:#e59641;fill-opacity:1;fill-rule:nonzero;stroke:none" id="path64" />
         <path
            d="m 2235.51,3226.6 c 0.01,-0.27 0.08,-0.53 0.08,-0.81 0,-11.6 -9.4,-21 -21,-21 h -832.55 c -11.6,0 -21,9.4 -21,21 0,0.12 70.88,20.38 178.89,20.38 95.27,0 183.67,-34 455.88,-13.06 96.01,7.39 239.7,-6.51 239.7,-6.51"
            style="fill:#cc7415;fill-opacity:1;fill-rule:nonzero;stroke:none" id="path66" />
         <path
            d="m 2251.16,3351.35 c 0,-21.94 -17.78,-39.72 -39.72,-39.72 h -828.96 c -21.93,0 -39.72,17.78 -39.72,39.72 v 31.95 c 0,21.94 17.79,39.72 39.72,39.72 h 828.96 c 21.94,0 39.72,-17.78 39.72,-39.72 v -31.95"
            style="fill:#1d89bf;fill-opacity:1;fill-rule:nonzero;stroke:none" id="path68" />
         <path
            d="m 2232.88,3395.72 c 0,-11.6 -9.4,-21 -21,-21 -106.84,0 -166.62,46.31 -436.88,12.95 -404.83,-49.96 -416.67,-3.55 -416.67,8.05 v 0 c 0,11.59 9.4,21 21,21 h 832.55 c 11.6,0 21,-9.41 21,-21 v 0"
            style="fill:#2d9cd3;fill-opacity:1;fill-rule:nonzero;stroke:none" id="path70" />
         <path
            d="m 1358.41,3337.24 c -0.01,-0.28 -0.08,-0.54 -0.08,-0.81 0,-11.6 9.4,-21 21,-21 h 832.55 c 11.6,0 21,9.4 21,21 0,0.11 -70.88,20.38 -178.89,20.38 -95.26,0 -183.67,-34 -455.88,-13.06 -96.01,7.38 -239.7,-6.51 -239.7,-6.51"
            style="fill:#187cb7;fill-opacity:1;fill-rule:nonzero;stroke:none" id="path72" />
         <path
            d="m 1342.76,3461.98 c 0,-21.93 17.79,-39.71 39.72,-39.71 h 828.96 c 21.94,0 39.72,17.78 39.72,39.71 v 31.96 c 0,21.94 -17.78,39.72 -39.72,39.72 h -828.96 c -21.93,0 -39.72,-17.78 -39.72,-39.72 v -31.96"
            style="fill:#078f85;fill-opacity:1;fill-rule:nonzero;stroke:none" id="path74" />
         <path
            d="m 1361.04,3506.35 c 0,-11.6 9.4,-21 21,-21 106.84,0 166.62,46.31 436.88,12.96 404.83,-49.96 416.67,-3.56 416.67,8.04 v 0 c 0,11.6 -9.4,21 -21,21 h -832.55 c -11.6,0 -21,-9.4 -21,-21 v 0"
            style="fill:#0aa596;fill-opacity:1;fill-rule:nonzero;stroke:none" id="path76" />
         <path
            d="m 2235.51,3447.87 c 0.01,-0.27 0.08,-0.53 0.08,-0.81 0,-11.6 -9.4,-21 -21,-21 h -832.55 c -11.6,0 -21,9.4 -21,21 0,0.11 70.88,20.38 178.89,20.38 95.27,0 183.67,-34 455.88,-13.06 96.01,7.39 239.7,-6.51 239.7,-6.51"
            style="fill:#078077;fill-opacity:1;fill-rule:nonzero;stroke:none" id="path78" />
         <path
            d="m 2538.68,3747.34 v 112.98 c 0,15.64 -12.69,28.33 -28.34,28.33 h -66.6 c -15.65,0 -28.34,-12.69 -28.34,-28.33 v -112.98 h 123.28"
            style="fill:#d8d8d8;fill-opacity:1;fill-rule:nonzero;stroke:none" id="path80" />
         <path
            d="m 2590.03,3388.7 c -16.14,-2.56 -31.26,8.47 -33.85,24.61 -5.83,36.24 -9.55,64.75 -16.7,105.61 -2.83,16.1 8.46,31.3 24.61,33.85 16.14,2.55 27.75,-9.44 33.85,-24.61 11.58,-28.79 16.7,-66.02 16.7,-105.61 0,-16.35 -8.46,-31.3 -24.61,-33.85 z m 71.35,-0.52 c 0,186.58 -82.42,337.84 -184.1,337.84 -101.68,0 -184.1,-151.26 -184.1,-337.84 0,-45.17 9.22,-87.52 13.63,-127.63 8.49,-77.22 0,-310.73 0,-310.73 0,-23.9 19.38,-43.28 43.29,-43.28 h 254.36 c 23.91,0 43.29,19.38 43.29,43.28 0,0 -8.49,233.51 0,310.73 4.41,40.11 13.63,82.46 13.63,127.63"
            style="fill:#1fbbdd;fill-opacity:1;fill-rule:nonzero;stroke:none" id="path82" />
         <path
            d="m 2575.31,3675.68 v 62.12 c 0,17.93 -14.54,32.47 -32.47,32.47 h -130.95 c -17.93,0 -32.47,-14.54 -32.47,-32.47 v -62.12 h 195.89"
            style="fill:#d8d8d8;fill-opacity:1;fill-rule:nonzero;stroke:none" id="path84" />
         <path
            d="m 2568.38,3563.94 c -1.94,0 -3.93,-0.15 -5.98,-0.48 -10.71,-1.69 -20.45,-7.71 -26.74,-16.52 -6.26,-8.76 -8.69,-19.38 -6.85,-29.89 4.48,-25.5 7.66,-46.6 10.74,-67 1.88,-12.44 3.76,-24.91 5.94,-38.46 3.18,-19.75 19.95,-34.08 39.88,-34.08 2.09,0 4.22,0.16 6.35,0.5 20.17,3.18 33.74,21.09 33.75,44.54 0,43.3 -6.05,81.21 -17.49,109.65 -8.11,20.18 -22.54,31.74 -39.6,31.74 z M 2350.1,2917.36 c -17.9,0 -32.47,14.56 -32.47,32.47 0.34,9.17 8.42,234.79 -0.06,311.9 -1.42,12.88 -3.32,25.98 -5.26,39.33 -4.08,28.07 -8.31,57.09 -8.31,87.12 0,89.76 19.98,176.01 54.96,237.91 h 236.64 c 34.98,-61.9 54.96,-148.15 54.96,-237.91 0,-30.03 -4.23,-59.05 -8.31,-87.12 -1.94,-13.35 -3.85,-26.45 -5.26,-39.33 -8.48,-77.11 -0.4,-302.73 -0.06,-312.29 -0.01,-17.52 -14.57,-32.08 -32.47,-32.08 H 2350.1"
            style="fill:#0695c1;fill-opacity:1;fill-rule:nonzero;stroke:none" id="path86" />
         <path
            d="m 2412.53,3007.05 c -19.08,0 -37,7.78 -50.45,21.9 -14.97,15.73 -22.91,37.96 -21.78,61.01 l 20.66,421.52 c 1.88,38.13 34.09,69.14 71.82,69.14 h 50.04 c 29.17,0 30.93,-41.49 33.14,-94.03 3.61,-85.29 11.37,-155.9 70.01,-155.9 h 9.94 l 20.4,-240.34 c 0.04,-46.34 -33.94,-83.3 -75.71,-83.3 h -128.07"
            style="fill:#d8d8d8;fill-opacity:1;fill-rule:nonzero;stroke:none" id="path88" />
         <path
            d="m 2605.53,3089.43 c 0,-39.27 -29.08,-71.55 -64.94,-71.55 h -128.06 c -35.86,0 -63.35,32.28 -61.42,71.55 l 20.66,421.52 c 1.6,32.68 28.91,58.85 61.01,58.85 h 50.05 c 48.43,0 -17.41,-249.93 103.14,-249.93 l 19.56,-230.44"
            style="fill:#efefef;fill-opacity:1;fill-rule:nonzero;stroke:none" id="path90" />
         <path
            d="m 2533.19,3861.12 c -0.43,12.26 -10.48,22.12 -22.84,22.12 h -66.61 c -12.37,0 -22.41,-9.86 -22.85,-22.12 h 13.58 v -77.85 c 0,-3.38 2.74,-6.11 6.12,-6.11 h 14.14 c 3.37,0 6.11,2.73 6.11,6.11 v 77.85 h 72.35"
            style="fill:#efefef;fill-opacity:1;fill-rule:nonzero;stroke:none" id="path92" />
         <path
            d="m 2569.8,3744.45 c -0.54,14.45 -20.6,26.06 -33.68,26.06 h -117.5 c -13.08,0 -33.15,-11.61 -33.68,-26.06 h 22.67 v -59.43 c 0,-3.38 2.73,-6.11 6.11,-6.11 h 14.14 c 3.38,0 6.12,2.73 6.12,6.11 v 59.43 h 135.82"
            style="fill:#efefef;fill-opacity:1;fill-rule:nonzero;stroke:none" id="path94" />
         <path
            d="m 2503.34,3520.42 c -2.19,29.04 -6.71,49.38 -20.51,49.38 h -50.05 c -32.1,0 -59.41,-26.17 -61.01,-58.85 l -6.29,-128.4 c 45.95,45.96 91.91,91.91 137.86,137.87"
            style="fill:#f9f9f9;fill-opacity:1;fill-rule:nonzero;stroke:none" id="path96" />
         <path
            d="m 2366.17,3041.07 c 11.16,-14.15 27.53,-23.19 46.36,-23.19 h 128.06 c 35.87,0 64.94,32.28 64.94,71.55 l -14.94,176.05 -224.42,-224.41"
            style="fill:#e5e5e5;fill-opacity:1;fill-rule:nonzero;stroke:none" id="path98" />
         <path
            d="m 2739.73,3298.93 v 95.23 c 0,44.01 35.8,79.81 79.8,79.81 h 227.43 c 44.01,0 79.81,-35.8 79.81,-79.81 v -95.23 h 7.98 v 104.55 c 0,48.48 -39.3,87.78 -87.78,87.78 h -227.44 c -48.48,0 -87.78,-39.3 -87.78,-87.78 v -104.55 h 7.98"
            style="fill:#187cb7;fill-opacity:1;fill-rule:nonzero;stroke:none" id="path100" />
         <path
            d="m 3105.75,2930.91 c -1.64,-14.16 -17.24,-25.45 -34.87,-25.45 h -278.61 c -17.63,0 -33.23,11.29 -34.88,25.45 l -39.73,342.47 c -2.53,21.81 13.61,39.88 36.11,39.88 h 355.61 c 22.5,0 38.64,-18.07 36.11,-39.88 l -39.74,-342.47"
            style="fill:#d8d8d8;fill-opacity:1;fill-rule:nonzero;stroke:none" id="path102" />
         <path
            d="m 2746.97,3114.61 187.82,187.83 h -181.01 c -7.81,0 -14.75,-2.95 -19.51,-8.3 -4.64,-5.2 -6.72,-12.14 -5.87,-19.51 l 18.57,-160.02"
            style="fill:#e5e5e5;fill-opacity:1;fill-rule:nonzero;stroke:none" id="path104" />
         <path
            d="m 2747.71,3083.6 17.61,-151.78 c 1.16,-9.96 13.49,-18.37 26.95,-18.37 h 278.61 c 13.45,0 25.79,8.41 26.95,18.38 l 17.61,151.77 c 0,0 -97.42,-3.05 -182.44,16.62 -97.56,22.57 -185.29,-16.62 -185.29,-16.62"
            style="fill:#ffffff;fill-opacity:1;fill-rule:nonzero;stroke:none" id="path106" />
         <path
            d="m 2713.82,3271.22 -0.26,3.72 c -0.77,11.24 2.89,21.8 10.31,29.75 7.57,8.1 18.19,12.56 29.9,12.56 h 355.61 c 11.71,0 22.33,-4.46 29.9,-12.56 7.42,-7.95 11.08,-18.52 10.31,-29.75 l -0.26,-3.72 h -435.51"
            style="fill:#0695c1;fill-opacity:1;fill-rule:nonzero;stroke:none" id="path108" />
         <path
            d="m 3121.95,3306.23 c 0,-4.45 -3.6,-8.06 -8.05,-8.06 h -364.37 c -4.45,0 -8.06,3.61 -8.06,8.06 v 0 c 0,4.45 3.61,8.05 8.06,8.05 h 364.37 c 4.45,0 8.05,-3.6 8.05,-8.05 v 0"
            style="fill:#1fbbdd;fill-opacity:1;fill-rule:nonzero;stroke:none" id="path110" />
         <path
            d="m 3180,274.52 c 0,-9.86 -21.32,-17.848 -47.61,-17.848 H 1367.61 c -26.29,0 -47.61,7.988 -47.61,17.848 v 2.378 c 0,9.872 21.32,17.864 47.61,17.864 h 1764.78 c 26.29,0 47.61,-7.992 47.61,-17.864 v -2.378"
            style="fill:#b5b5b5;fill-opacity:1;fill-rule:nonzero;stroke:none" id="path112" />
         <path
            d="m 1370.67,275.469 c -15.48,0 -28.08,12.601 -28.08,28.082 V 2877.07 c 0,15.48 12.6,28.07 28.08,28.07 h 1763.74 c 15.49,0 28.08,-12.59 28.08,-28.07 V 303.551 c 0,-15.481 -12.59,-28.082 -28.08,-28.082 H 1370.67"
            style="fill:#b5b5b5;fill-opacity:1;fill-rule:nonzero;stroke:none" id="path114" />
         <path
            d="m 3153.13,303.551 c 0,-10.34 -8.38,-18.719 -18.71,-18.719 H 1370.67 c -10.34,0 -18.72,8.379 -18.72,18.719 V 2877.07 c 0,10.33 8.38,18.72 18.72,18.72 h 1763.75 c 10.33,0 18.71,-8.39 18.71,-18.72 V 303.551"
            style="fill:#f0f0f0;fill-opacity:1;fill-rule:nonzero;stroke:none" id="path116" />
         <path d="m 1370.67,2396.19 v -589.8 l 589.8,589.8 z"
            style="fill:#ffffff;fill-opacity:1;fill-rule:nonzero;stroke:none" id="path118" />
         <path d="m 1370.67,2878.2 v -232.86 l 232.86,232.86 z"
            style="fill:#ffffff;fill-opacity:1;fill-rule:nonzero;stroke:none" id="path120" />
         <path d="m 2338.33,303.551 h 796.08 v 796.089 z"
            style="fill:#e8e8e8;fill-opacity:1;fill-rule:nonzero;stroke:none" id="path122" />
         <path
            d="m 2252.54,2532.52 c -325.59,0 -632.14,23.48 -900.59,64.84 V 2490.7 c 0,-10.34 8.38,-18.72 18.72,-18.72 h 1763.75 c 10.33,0 18.71,8.38 18.71,18.72 v 106.66 c -268.45,-41.36 -575,-64.84 -900.59,-64.84"
            style="fill:#cdced0;fill-opacity:1;fill-rule:nonzero;stroke:none" id="path124" />
         <path
            d="m 3013.85,1541.11 c 0,420.46 -340.85,761.31 -761.31,761.31 -420.45,0 -761.3,-340.85 -761.3,-761.31 0,-420.45 340.85,-761.301 761.3,-761.301 420.46,0 761.31,340.851 761.31,761.301"
            style="fill:#b5b5b5;fill-opacity:1;fill-rule:nonzero;stroke:none" id="path126" />
         <path
            d="m 2994.93,1541.11 c 0,410.01 -332.38,742.39 -742.39,742.39 -410,0 -742.38,-332.38 -742.38,-742.39 0,-410 332.38,-742.38 742.38,-742.38 410.01,0 742.39,332.38 742.39,742.38"
            style="fill:#f0f0f0;fill-opacity:1;fill-rule:nonzero;stroke:none" id="path128" />
         <path
            d="m 2812.51,1541.11 c 0,309.26 -250.71,559.97 -559.97,559.97 -309.26,0 -559.96,-250.71 -559.96,-559.97 0,-309.26 250.7,-559.962 559.96,-559.962 309.26,0 559.97,250.702 559.97,559.962"
            style="fill:#cdced0;fill-opacity:1;fill-rule:nonzero;stroke:none" id="path130" />
         <path
            d="m 2728.27,1541.11 c 0,262.74 -212.99,475.74 -475.73,475.74 -262.74,0 -475.73,-213 -475.73,-475.74 0,-262.74 212.99,-475.73 475.73,-475.73 262.74,0 475.73,212.99 475.73,475.73"
            style="fill:#0d6793;fill-opacity:1;fill-rule:nonzero;stroke:none" id="path132" />
         <path
            d="m 2252.54,1074.74 c -257.16,0 -466.37,209.22 -466.37,466.37 0,257.16 209.21,466.38 466.37,466.38 257.17,0 466.38,-209.22 466.38,-466.38 0,-257.15 -209.21,-466.37 -466.38,-466.37"
            style="fill:#187cb7;fill-opacity:1;fill-rule:nonzero;stroke:none" id="path134" />
         <path
            d="m 1824.21,1563.7 c 76.56,-117.67 209.15,-195.7 359.7,-195.7 228.94,0 416.55,180.29 428.34,406.35 -76.57,117.67 -209.16,195.7 -359.71,195.7 -228.94,0 -416.54,-180.29 -428.33,-406.35"
            style="fill:#2d9cd3;fill-opacity:1;fill-rule:nonzero;stroke:none" id="path136" />
         <path
            d="m 2619.87,1541.11 c 0,-105.24 39.98,-201.15 105.57,-273.37 46.59,80.42 73.4,173.74 73.4,273.37 0,99.64 -26.8,192.96 -73.4,273.38 -65.59,-72.22 -105.57,-168.13 -105.57,-273.38"
            style="fill:#f0f0f0;fill-opacity:1;fill-rule:nonzero;stroke:none" id="path138" />
         <path d="m 3153.13,2471.61 v 11.05 H 1351.95 v -11.05 h 1801.18"
            style="fill:#b5b5b5;fill-opacity:1;fill-rule:nonzero;stroke:none" id="path140" />
         <path
            d="m 2252.54,981.148 c -309.26,0 -559.96,250.702 -559.96,559.962 0,309.26 250.7,559.97 559.96,559.97 309.26,0 559.97,-250.71 559.97,-559.97 0,-309.26 -250.71,-559.962 -559.97,-559.962 z m 0,1302.352 c -410,0 -742.38,-332.38 -742.38,-742.39 0,-410 332.38,-742.38 742.38,-742.38 410.01,0 742.39,332.38 742.39,742.38 0,410.01 -332.38,742.39 -742.39,742.39"
            style="fill:#f0f0f0;fill-opacity:1;fill-rule:nonzero;stroke:none" id="path142" />
         <path
            d="m 1707.36,1734.85 c 79.84,224.09 294.03,384.95 545.18,384.95 246.92,0 458.03,-155.54 540.95,-373.73 l 135.73,50.63 c -103.49,273.23 -367.62,468.08 -676.68,468.08 -313.28,0 -580.41,-200.21 -680.83,-479.33 l 135.65,-50.6"
            style="fill:#ffffff;fill-opacity:1;fill-rule:nonzero;stroke:none" id="path144" />
         <path d="m 1963.38,2478.6 v 417.19 h -8 V 2478.6 h 8"
            style="fill:#b5b5b5;fill-opacity:1;fill-rule:nonzero;stroke:none" id="path146" />
         <path
            d="m 1553.1,2670.56 v -15.93 c 0,-26.94 13.94,-50.26 32.04,-52.19 l 264.92,-28.15 c 38.61,-4.1 72.4,27.3 72.4,70.46 v 25.52 l -369.36,0.29"
            style="fill:#cdced0;fill-opacity:1;fill-rule:nonzero;stroke:none" id="path148" />
         <path d="m 1922.46,2650.58 v 19.69 l -369.36,0.29 v -15.93 c 0,-1.38 0.18,-2.69 0.25,-4.05 h 369.11"
            style="fill:#b5b5b5;fill-opacity:1;fill-rule:nonzero;stroke:none" id="path150" />
         <path
            d="m 2397.75,2725.07 c 0,80.2 -65.01,145.21 -145.21,145.21 -80.2,0 -145.21,-65.01 -145.21,-145.21 0,-80.2 65.01,-145.21 145.21,-145.21 80.2,0 145.21,65.01 145.21,145.21"
            style="fill:#b5b5b5;fill-opacity:1;fill-rule:nonzero;stroke:none" id="path152" />
         <path
            d="m 2341.44,2725.07 c 0,49.1 -39.8,88.89 -88.9,88.89 -49.09,0 -88.89,-39.79 -88.89,-88.89 0,-49.09 39.8,-88.89 88.89,-88.89 49.1,0 88.9,39.8 88.9,88.89"
            style="fill:#cdced0;fill-opacity:1;fill-rule:nonzero;stroke:none" id="path154" />
         <path
            d="m 2252.54,2643.85 c -44.78,0 -81.21,36.44 -81.21,81.22 0,44.78 36.43,81.22 81.21,81.22 44.79,0 81.22,-36.44 81.22,-81.22 0,-44.78 -36.43,-81.22 -81.22,-81.22"
            style="fill:#f0f0f0;fill-opacity:1;fill-rule:nonzero;stroke:none" id="path156" />
         <path
            d="m 2252.54,2630.69 c -52.12,0 -94.38,42.25 -94.38,94.38 0,52.13 42.26,94.38 94.38,94.38 52.13,0 94.38,-42.25 94.38,-94.38 0,-52.13 -42.25,-94.38 -94.38,-94.38 z m 0,235.98 c -78.2,0 -141.6,-63.39 -141.6,-141.6 0,-78.2 63.4,-141.6 141.6,-141.6 78.21,0 141.61,63.4 141.61,141.6 0,78.21 -63.4,141.6 -141.61,141.6"
            style="fill:#187cb7;fill-opacity:1;fill-rule:nonzero;stroke:none" id="path158" />
         <path
            d="m 2887.99,2666.19 c -5.05,0 -9.16,4.02 -9.16,8.96 v 91.94 c 0,4.95 4.11,8.97 9.16,8.97 h 187.46 c 5.05,0 9.16,-4.02 9.16,-8.97 v -91.94 c 0,-4.94 -4.11,-8.96 -9.16,-8.96 h -187.46"
            style="fill:#b5b5b5;fill-opacity:1;fill-rule:nonzero;stroke:none" id="path160" />
         <path
            d="m 3081.11,2672.54 c 0,-1.34 -1.09,-2.43 -2.43,-2.43 h -193.92 c -1.34,0 -2.42,1.09 -2.42,2.43 v 97.16 c 0,1.35 1.08,2.43 2.42,2.43 h 193.92 c 1.34,0 2.43,-1.08 2.43,-2.43 v -97.16"
            style="fill:#187cb7;fill-opacity:1;fill-rule:nonzero;stroke:none" id="path162" />
         <path
            d="m 2574.66,2771.81 c -21.94,0 -39.78,17.84 -39.78,39.77 0,21.93 17.84,39.77 39.78,39.77 21.92,0 39.77,-17.84 39.77,-39.77 0,-21.93 -17.85,-39.77 -39.77,-39.77"
            style="fill:#b5b5b5;fill-opacity:1;fill-rule:nonzero;stroke:none" id="path164" />
         <path
            d="m 2610.92,2811.58 c 0,-20.03 -16.24,-36.26 -36.27,-36.26 -20.02,0 -36.26,16.23 -36.26,36.26 0,20.03 16.24,36.26 36.26,36.26 20.03,0 36.27,-16.23 36.27,-36.26"
            style="fill:#f0f0f0;fill-opacity:1;fill-rule:nonzero;stroke:none" id="path166" />
         <path
            d="m 2574.66,2678.06 c -21.94,0 -39.78,17.84 -39.78,39.77 0,21.93 17.84,39.78 39.78,39.78 21.92,0 39.77,-17.85 39.77,-39.78 0,-21.93 -17.85,-39.77 -39.77,-39.77"
            style="fill:#b5b5b5;fill-opacity:1;fill-rule:nonzero;stroke:none" id="path168" />
         <path
            d="m 2610.92,2717.83 c 0,-20.03 -16.24,-36.26 -36.27,-36.26 -20.02,0 -36.26,16.23 -36.26,36.26 0,20.03 16.24,36.27 36.26,36.27 20.03,0 36.27,-16.24 36.27,-36.27"
            style="fill:#f0f0f0;fill-opacity:1;fill-rule:nonzero;stroke:none" id="path170" />
         <path
            d="m 2574.66,2584.31 c -21.94,0 -39.78,17.84 -39.78,39.77 0,21.94 17.84,39.78 39.78,39.78 21.92,0 39.77,-17.84 39.77,-39.78 0,-21.93 -17.85,-39.77 -39.77,-39.77"
            style="fill:#b5b5b5;fill-opacity:1;fill-rule:nonzero;stroke:none" id="path172" />
         <path
            d="m 2610.92,2624.08 c 0,-20.02 -16.24,-36.26 -36.27,-36.26 -20.02,0 -36.26,16.24 -36.26,36.26 0,20.03 16.24,36.27 36.26,36.27 20.03,0 36.27,-16.24 36.27,-36.27"
            style="fill:#f0f0f0;fill-opacity:1;fill-rule:nonzero;stroke:none" id="path174" />
         <path
            d="m 2678.01,2771.81 c -21.94,0 -39.78,17.84 -39.78,39.77 0,21.93 17.84,39.77 39.78,39.77 21.93,0 39.77,-17.84 39.77,-39.77 0,-21.93 -17.84,-39.77 -39.77,-39.77"
            style="fill:#b5b5b5;fill-opacity:1;fill-rule:nonzero;stroke:none" id="path176" />
         <path
            d="m 2714.27,2811.58 c 0,-20.03 -16.24,-36.26 -36.26,-36.26 -20.03,0 -36.27,16.23 -36.27,36.26 0,20.03 16.24,36.26 36.27,36.26 20.02,0 36.26,-16.23 36.26,-36.26"
            style="fill:#f0f0f0;fill-opacity:1;fill-rule:nonzero;stroke:none" id="path178" />
         <path
            d="m 2678.01,2678.06 c -21.94,0 -39.78,17.84 -39.78,39.77 0,21.93 17.84,39.78 39.78,39.78 21.93,0 39.77,-17.85 39.77,-39.78 0,-21.93 -17.84,-39.77 -39.77,-39.77"
            style="fill:#b5b5b5;fill-opacity:1;fill-rule:nonzero;stroke:none" id="path180" />
         <path
            d="m 2714.27,2717.83 c 0,-20.03 -16.24,-36.26 -36.26,-36.26 -20.03,0 -36.27,16.23 -36.27,36.26 0,20.03 16.24,36.27 36.27,36.27 20.02,0 36.26,-16.24 36.26,-36.27"
            style="fill:#f0f0f0;fill-opacity:1;fill-rule:nonzero;stroke:none" id="path182" />
         <path
            d="m 2678.01,2584.31 c -21.94,0 -39.78,17.84 -39.78,39.77 0,21.94 17.84,39.78 39.78,39.78 21.93,0 39.77,-17.84 39.77,-39.78 0,-21.93 -17.84,-39.77 -39.77,-39.77"
            style="fill:#b5b5b5;fill-opacity:1;fill-rule:nonzero;stroke:none" id="path184" />
         <path
            d="m 2714.27,2624.08 c 0,-20.02 -16.24,-36.26 -36.26,-36.26 -20.03,0 -36.27,16.24 -36.27,36.26 0,20.03 16.24,36.27 36.27,36.27 20.02,0 36.26,-16.24 36.26,-36.27"
            style="fill:#f0f0f0;fill-opacity:1;fill-rule:nonzero;stroke:none" id="path186" />
         <path
            d="m 2781.36,2771.81 c -21.93,0 -39.78,17.84 -39.78,39.77 0,21.93 17.85,39.77 39.78,39.77 21.93,0 39.77,-17.84 39.77,-39.77 0,-21.93 -17.84,-39.77 -39.77,-39.77"
            style="fill:#b5b5b5;fill-opacity:1;fill-rule:nonzero;stroke:none" id="path188" />
         <path
            d="m 2817.62,2811.58 c 0,-20.03 -16.23,-36.26 -36.26,-36.26 -20.03,0 -36.27,16.23 -36.27,36.26 0,20.03 16.24,36.26 36.27,36.26 20.03,0 36.26,-16.23 36.26,-36.26"
            style="fill:#f0f0f0;fill-opacity:1;fill-rule:nonzero;stroke:none" id="path190" />
         <path
            d="m 2781.36,2678.06 c -21.93,0 -39.78,17.84 -39.78,39.77 0,21.93 17.85,39.78 39.78,39.78 21.93,0 39.77,-17.85 39.77,-39.78 0,-21.93 -17.84,-39.77 -39.77,-39.77"
            style="fill:#b5b5b5;fill-opacity:1;fill-rule:nonzero;stroke:none" id="path192" />
         <path
            d="m 2817.62,2717.83 c 0,-20.03 -16.23,-36.26 -36.26,-36.26 -20.03,0 -36.27,16.23 -36.27,36.26 0,20.03 16.24,36.27 36.27,36.27 20.03,0 36.26,-16.24 36.26,-36.27"
            style="fill:#f0f0f0;fill-opacity:1;fill-rule:nonzero;stroke:none" id="path194" />
         <path
            d="m 2781.36,2584.31 c -21.93,0 -39.78,17.84 -39.78,39.77 0,21.94 17.85,39.78 39.78,39.78 21.93,0 39.77,-17.84 39.77,-39.78 0,-21.93 -17.84,-39.77 -39.77,-39.77"
            style="fill:#b5b5b5;fill-opacity:1;fill-rule:nonzero;stroke:none" id="path196" />
         <path
            d="m 2817.62,2624.08 c 0,-20.02 -16.23,-36.26 -36.26,-36.26 -20.03,0 -36.27,16.24 -36.27,36.26 0,20.03 16.24,36.27 36.27,36.27 20.03,0 36.26,-16.24 36.26,-36.27"
            style="fill:#f0f0f0;fill-opacity:1;fill-rule:nonzero;stroke:none" id="path198" />
         <path
            d="m 2119.17,2841.99 c 0,-5.17 -4.19,-9.36 -9.36,-9.36 h -45.23 c -5.17,0 -9.36,4.19 -9.36,9.36 v 18.72 c 0,5.17 4.19,9.36 9.36,9.36 h 45.23 c 5.17,0 9.36,-4.19 9.36,-9.36 v -18.72"
            style="fill:#b5b5b5;fill-opacity:1;fill-rule:nonzero;stroke:none" id="path200" />
         <path
            d="m 2077.06,2757.76 c 0,-5.17 -4.2,-9.36 -9.36,-9.36 h -45.24 c -5.17,0 -9.36,4.19 -9.36,9.36 v 18.72 c 0,5.17 4.19,9.36 9.36,9.36 h 45.24 c 5.16,0 9.36,-4.19 9.36,-9.36 v -18.72"
            style="fill:#b5b5b5;fill-opacity:1;fill-rule:nonzero;stroke:none" id="path202" />
         <path
            d="m 2077.06,2673.52 c 0,-5.16 -4.2,-9.35 -9.36,-9.35 h -45.24 c -5.17,0 -9.36,4.19 -9.36,9.35 v 18.72 c 0,5.17 4.19,9.36 9.36,9.36 h 45.24 c 5.16,0 9.36,-4.19 9.36,-9.36 v -18.72"
            style="fill:#b5b5b5;fill-opacity:1;fill-rule:nonzero;stroke:none" id="path204" />
         <path
            d="m 2119.17,2589.29 c 0,-5.17 -4.19,-9.36 -9.36,-9.36 h -45.23 c -5.17,0 -9.36,4.19 -9.36,9.36 v 18.72 c 0,5.17 4.19,9.36 9.36,9.36 h 45.23 c 5.17,0 9.36,-4.19 9.36,-9.36 v -18.72"
            style="fill:#b5b5b5;fill-opacity:1;fill-rule:nonzero;stroke:none" id="path206" />
         <path
            d="m 2383.26,2841.99 c 0,-5.17 4.19,-9.36 9.36,-9.36 h 45.24 c 5.17,0 9.36,4.19 9.36,9.36 v 18.72 c 0,5.17 -4.19,9.36 -9.36,9.36 h -45.24 c -5.17,0 -9.36,-4.19 -9.36,-9.36 v -18.72"
            style="fill:#b5b5b5;fill-opacity:1;fill-rule:nonzero;stroke:none" id="path208" />
         <path
            d="m 2425.38,2757.76 c 0,-5.17 4.19,-9.36 9.36,-9.36 h 45.23 c 5.17,0 9.36,4.19 9.36,9.36 v 18.72 c 0,5.17 -4.19,9.36 -9.36,9.36 h -45.23 c -5.17,0 -9.36,-4.19 -9.36,-9.36 v -18.72"
            style="fill:#b5b5b5;fill-opacity:1;fill-rule:nonzero;stroke:none" id="path210" />
         <path
            d="m 2425.38,2673.52 c 0,-5.16 4.19,-9.35 9.36,-9.35 h 45.23 c 5.17,0 9.36,4.19 9.36,9.35 v 18.72 c 0,5.17 -4.19,9.36 -9.36,9.36 h -45.23 c -5.17,0 -9.36,-4.19 -9.36,-9.36 v -18.72"
            style="fill:#b5b5b5;fill-opacity:1;fill-rule:nonzero;stroke:none" id="path212" />
         <path
            d="m 2383.26,2589.29 c 0,-5.17 4.19,-9.36 9.36,-9.36 h 45.24 c 5.17,0 9.36,4.19 9.36,9.36 v 18.72 c 0,5.17 -4.19,9.36 -9.36,9.36 h -45.24 c -5.17,0 -9.36,-4.19 -9.36,-9.36 v -18.72"
            style="fill:#b5b5b5;fill-opacity:1;fill-rule:nonzero;stroke:none" id="path214" />
         <path
            d="m 1928.55,359.82 c 0,-22.422 -18.17,-40.601 -40.59,-40.601 h -379.71 c -22.42,0 -40.59,18.179 -40.59,40.601 v 242.489 c 0,22.421 18.17,40.589 40.59,40.589 h 379.71 c 22.42,0 40.59,-18.168 40.59,-40.589 V 359.82"
            style="fill:#b5b5b5;fill-opacity:1;fill-rule:nonzero;stroke:none" id="path216" />
         <path
            d="m 1508.25,324.641 c -19.4,0 -35.18,15.769 -35.18,35.179 v 242.489 c 0,19.402 15.78,35.179 35.18,35.179 h 379.71 c 19.4,0 35.18,-15.777 35.18,-35.179 V 359.82 c 0,-19.41 -15.78,-35.179 -35.18,-35.179 h -379.71"
            style="fill:#f0f0f0;fill-opacity:1;fill-rule:nonzero;stroke:none" id="path218" />
         <path
            d="m 1714.4,637.488 h -206.15 c -19.4,0 -35.18,-15.777 -35.18,-35.179 V 396.16 c 80.45,80.442 160.89,160.879 241.33,241.328"
            style="fill:#ffffff;fill-opacity:1;fill-rule:nonzero;stroke:none" id="path220" />
         <path d="m 1743.98,324.641 h 143.98 c 19.4,0 35.18,15.769 35.18,35.179 V 503.789 L 1743.98,324.641"
            style="fill:#e8e8e8;fill-opacity:1;fill-rule:nonzero;stroke:none" id="path222" />
         <path
            d="m 1527.47,3943.66 c 0,-131.49 -106.59,-238.08 -238.08,-238.08 -131.49,0 -238.08,106.59 -238.08,238.08 0,131.49 106.59,238.08 238.08,238.08 131.49,0 238.08,-106.59 238.08,-238.08"
            style="fill:#c4eff6;fill-opacity:1;fill-rule:nonzero;stroke:none" id="path224" />
         <path
            d="m 1439.24,3999.1 c 0,-94.17 -76.35,-170.52 -170.52,-170.52 -94.18,0 -170.52,76.35 -170.52,170.52 0,94.18 76.34,170.53 170.52,170.53 94.17,0 170.52,-76.35 170.52,-170.53"
            style="fill:#d9f6f9;fill-opacity:1;fill-rule:nonzero;stroke:none" id="path226" />
         <path
            d="m 1318.32,4128.45 c 11.53,-29 -17.7,-67.84 -65.29,-86.76 -47.58,-18.92 -95.5,-10.75 -107.03,18.25 -11.53,28.99 17.7,67.84 65.29,86.76 47.58,18.91 95.5,10.74 107.03,-18.25"
            style="fill:#ffffff;fill-opacity:1;fill-rule:nonzero;stroke:none" id="path228" />
         <path
            d="m 1404.54,3772.92 c 3.82,-9.62 -8.5,-23.55 -27.52,-31.12 -19.03,-7.56 -37.55,-5.89 -41.37,3.74 -3.83,9.62 8.49,23.55 27.51,31.12 19.03,7.56 37.55,5.89 41.38,-3.74"
            style="fill:#ffffff;fill-opacity:1;fill-rule:nonzero;stroke:none" id="path230" />
         <path
            d="m 3873.54,1690.47 c 0,-131.49 -106.6,-238.09 -238.09,-238.09 -131.49,0 -238.08,106.6 -238.08,238.09 0,131.49 106.59,238.08 238.08,238.08 131.49,0 238.09,-106.59 238.09,-238.08"
            style="fill:#c4eff6;fill-opacity:1;fill-rule:nonzero;stroke:none" id="path232" />
         <path
            d="m 3785.3,1745.91 c 0,-94.18 -76.34,-170.52 -170.52,-170.52 -94.17,0 -170.52,76.34 -170.52,170.52 0,94.17 76.35,170.52 170.52,170.52 94.18,0 170.52,-76.35 170.52,-170.52"
            style="fill:#d9f6f9;fill-opacity:1;fill-rule:nonzero;stroke:none" id="path234" />
         <path
            d="m 3664.39,1875.25 c 11.53,-29 -17.7,-67.84 -65.29,-86.76 -47.59,-18.92 -95.51,-10.74 -107.04,18.25 -11.52,29 17.71,67.84 65.29,86.76 47.59,18.92 95.51,10.75 107.04,-18.25"
            style="fill:#ffffff;fill-opacity:1;fill-rule:nonzero;stroke:none" id="path236" />
         <path
            d="m 3750.6,1519.73 c 3.83,-9.63 -8.49,-23.56 -27.52,-31.12 -19.02,-7.56 -37.54,-5.89 -41.37,3.73 -3.83,9.63 8.49,23.56 27.52,31.12 19.02,7.56 37.54,5.89 41.37,-3.73"
            style="fill:#ffffff;fill-opacity:1;fill-rule:nonzero;stroke:none" id="path238" />
         <path
            d="m 1001.75,1997.97 c 0,-59.27 -48.043,-107.32 -107.312,-107.32 -59.27,0 -107.321,48.05 -107.321,107.32 0,59.27 48.051,107.32 107.321,107.32 59.269,0 107.312,-48.05 107.312,-107.32"
            style="fill:#c4eff6;fill-opacity:1;fill-rule:nonzero;stroke:none" id="path240" />
         <path
            d="m 961.984,2022.96 c 0,-42.45 -34.414,-76.86 -76.867,-76.86 -42.449,0 -76.863,34.41 -76.863,76.86 0,42.45 34.414,76.87 76.863,76.87 42.453,0 76.867,-34.42 76.867,-76.87"
            style="fill:#d9f6f9;fill-opacity:1;fill-rule:nonzero;stroke:none" id="path242" />
         <path
            d="m 907.48,2081.27 c 5.196,-13.07 -7.98,-30.58 -29.429,-39.11 -21.449,-8.53 -43.051,-4.85 -48.246,8.23 -5.2,13.07 7.976,30.58 29.429,39.1 21.45,8.53 43.047,4.85 48.246,-8.22"
            style="fill:#ffffff;fill-opacity:1;fill-rule:nonzero;stroke:none" id="path244" />
         <path
            d="m 946.34,1921.01 c 1.726,-4.34 -3.828,-10.62 -12.402,-14.03 -8.575,-3.4 -16.926,-2.65 -18.649,1.69 -1.726,4.33 3.828,10.61 12.402,14.02 8.575,3.41 16.926,2.66 18.649,-1.68"
            style="fill:#ffffff;fill-opacity:1;fill-rule:nonzero;stroke:none" id="path246" />
         <path
            d="m 2802.51,4222.98 c 0,-49.82 -40.39,-90.21 -90.21,-90.21 -49.82,0 -90.21,40.39 -90.21,90.21 0,49.82 40.39,90.21 90.21,90.21 49.82,0 90.21,-40.39 90.21,-90.21"
            style="fill:#c4eff6;fill-opacity:1;fill-rule:nonzero;stroke:none" id="path248" />
         <path
            d="m 2769.08,4243.99 c 0,-35.69 -28.93,-64.61 -64.61,-64.61 -35.69,0 -64.62,28.92 -64.62,64.61 0,35.68 28.93,64.61 64.62,64.61 35.68,0 64.61,-28.93 64.61,-64.61"
            style="fill:#d9f6f9;fill-opacity:1;fill-rule:nonzero;stroke:none" id="path250" />
         <path
            d="m 2723.26,4293 c 4.37,-10.99 -6.71,-25.71 -24.74,-32.87 -18.03,-7.17 -36.19,-4.08 -40.55,6.91 -4.37,10.99 6.7,25.71 24.74,32.87 18.03,7.17 36.18,4.07 40.55,-6.91"
            style="fill:#ffffff;fill-opacity:1;fill-rule:nonzero;stroke:none" id="path252" />
         <path
            d="m 2755.93,4158.29 c 1.45,-3.65 -3.22,-8.93 -10.43,-11.8 -7.21,-2.86 -14.22,-2.23 -15.67,1.42 -1.45,3.64 3.21,8.92 10.42,11.79 7.21,2.87 14.23,2.23 15.68,-1.41"
            style="fill:#ffffff;fill-opacity:1;fill-rule:nonzero;stroke:none" id="path254" />
         <path
            d="m 3242.98,1048.95 c 0,-49.829 -40.39,-90.22 -90.21,-90.22 -49.83,0 -90.22,40.391 -90.22,90.22 0,49.82 40.39,90.21 90.22,90.21 49.82,0 90.21,-40.39 90.21,-90.21"
            style="fill:#c4eff6;fill-opacity:1;fill-rule:nonzero;stroke:none" id="path256" />
         <path
            d="m 3209.55,1069.95 c 0,-35.68 -28.93,-64.61 -64.62,-64.61 -35.68,0 -64.61,28.93 -64.61,64.61 0,35.69 28.93,64.62 64.61,64.62 35.69,0 64.62,-28.93 64.62,-64.62"
            style="fill:#d9f6f9;fill-opacity:1;fill-rule:nonzero;stroke:none" id="path258" />
         <path
            d="m 3163.73,1118.96 c 4.37,-10.98 -6.71,-25.7 -24.74,-32.87 -18.03,-7.17 -36.19,-4.07 -40.56,6.91 -4.37,10.99 6.71,25.71 24.74,32.88 18.03,7.17 36.19,4.07 40.56,-6.92"
            style="fill:#ffffff;fill-opacity:1;fill-rule:nonzero;stroke:none" id="path260" />
         <path
            d="m 3196.4,984.25 c 1.45,-3.648 -3.22,-8.93 -10.43,-11.789 -7.21,-2.871 -14.23,-2.231 -15.68,1.41 -1.45,3.649 3.22,8.93 10.43,11.789 7.21,2.871 14.23,2.238 15.68,-1.41"
            style="fill:#ffffff;fill-opacity:1;fill-rule:nonzero;stroke:none" id="path262" />
         <path
            d="m 3622.2,3553.53 c 0,-100.53 -81.5,-182.03 -182.03,-182.03 -100.53,0 -182.03,81.5 -182.03,182.03 0,100.53 81.5,182.03 182.03,182.03 100.53,0 182.03,-81.5 182.03,-182.03"
            style="fill:#c4eff6;fill-opacity:1;fill-rule:nonzero;stroke:none" id="path264" />
         <path
            d="m 3554.74,3595.92 c 0,-72.01 -58.37,-130.38 -130.37,-130.38 -72.01,0 -130.38,58.37 -130.38,130.38 0,72 58.37,130.37 130.38,130.37 72,0 130.37,-58.37 130.37,-130.37"
            style="fill:#d9f6f9;fill-opacity:1;fill-rule:nonzero;stroke:none" id="path266" />
         <path
            d="m 3462.29,3694.81 c 8.82,-22.17 -13.53,-51.87 -49.91,-66.33 -36.39,-14.47 -73.02,-8.22 -81.84,13.95 -8.81,22.17 13.54,51.87 49.92,66.33 36.38,14.47 73.02,8.22 81.83,-13.95"
            style="fill:#ffffff;fill-opacity:1;fill-rule:nonzero;stroke:none" id="path268" />
         <path
            d="m 3528.21,3422.99 c 2.92,-7.36 -6.5,-18.01 -21.04,-23.79 -14.54,-5.78 -28.71,-4.51 -31.63,2.85 -2.93,7.36 6.49,18.01 21.04,23.79 14.54,5.79 28.7,4.51 31.63,-2.85"
            style="fill:#ffffff;fill-opacity:1;fill-rule:nonzero;stroke:none" id="path270" />
         <path
            d="m 895.32,2433.32 c 0,-100.53 -81.496,-182.03 -182.027,-182.03 -100.535,0 -182.031,81.5 -182.031,182.03 0,100.54 81.496,182.03 182.031,182.03 100.531,0 182.027,-81.49 182.027,-182.03"
            style="fill:#c4eff6;fill-opacity:1;fill-rule:nonzero;stroke:none" id="path272" />
         <path
            d="m 827.859,2475.71 c 0,-72 -58.371,-130.37 -130.375,-130.37 -72.004,0 -130.375,58.37 -130.375,130.37 0,72.01 58.371,130.38 130.375,130.38 72.004,0 130.375,-58.37 130.375,-130.38"
            style="fill:#d9f6f9;fill-opacity:1;fill-rule:nonzero;stroke:none" id="path274" />
         <path
            d="m 735.414,2574.6 c 8.813,-22.17 -13.535,-51.86 -49.918,-66.33 -36.383,-14.46 -73.019,-8.22 -81.836,13.95 -8.812,22.18 13.535,51.87 49.918,66.34 36.383,14.46 73.02,8.21 81.836,-13.96"
            style="fill:#ffffff;fill-opacity:1;fill-rule:nonzero;stroke:none" id="path276" />
         <path
            d="m 801.328,2302.78 c 2.926,-7.35 -6.492,-18.01 -21.039,-23.79 -14.547,-5.78 -28.707,-4.5 -31.633,2.86 -2.926,7.35 6.496,18.01 21.039,23.79 14.547,5.78 28.707,4.5 31.633,-2.86"
            style="fill:#ffffff;fill-opacity:1;fill-rule:nonzero;stroke:none" id="path278" />
         <path
            d="m 1378.69,747.738 c 0,-76.968 -62.4,-139.379 -139.38,-139.379 -76.98,0 -139.38,62.411 -139.38,139.379 0,76.981 62.4,139.391 139.38,139.391 76.98,0 139.38,-62.41 139.38,-139.391"
            style="fill:#c4eff6;fill-opacity:1;fill-rule:nonzero;stroke:none" id="path280" />
         <path
            d="m 1327.04,780.199 c 0,-55.129 -44.7,-99.828 -99.83,-99.828 -55.14,0 -99.83,44.699 -99.83,99.828 0,55.141 44.69,99.832 99.83,99.832 55.13,0 99.83,-44.691 99.83,-99.832"
            style="fill:#d9f6f9;fill-opacity:1;fill-rule:nonzero;stroke:none" id="path282" />
         <path
            d="m 1256.25,855.922 c 6.75,-16.973 -10.37,-39.711 -38.22,-50.793 -27.86,-11.07 -55.92,-6.289 -62.67,10.691 -6.74,16.969 10.37,39.711 38.23,50.789 27.85,11.071 55.91,6.289 62.66,-10.687"
            style="fill:#ffffff;fill-opacity:1;fill-rule:nonzero;stroke:none" id="path284" />
         <path
            d="m 1306.72,647.789 c 2.24,-5.629 -4.97,-13.789 -16.11,-18.219 -11.14,-4.429 -21.98,-3.449 -24.22,2.192 -2.24,5.629 4.97,13.789 16.11,18.207 11.14,4.429 21.98,3.453 24.22,-2.18"
            style="fill:#ffffff;fill-opacity:1;fill-rule:nonzero;stroke:none" id="path286" />
      </g>
   </g>
</svg>