<svg width="64" height="64" viewBox="0 0 64 64" fill="none" xmlns="http://www.w3.org/2000/svg">
    <path
        d="M5.33337 15.9997C5.33337 13.1707 6.45718 10.4576 8.45757 8.4572C10.458 6.45681 13.1711 5.33301 16 5.33301H48C50.829 5.33301 53.5421 6.45681 55.5425 8.4572C57.5429 10.4576 58.6667 13.1707 58.6667 15.9997V47.9997C58.6667 50.8287 57.5429 53.5418 55.5425 55.5421C53.5421 57.5425 50.829 58.6663 48 58.6663H16C13.1711 58.6663 10.458 57.5425 8.45757 55.5421C6.45718 53.5418 5.33337 50.8287 5.33337 47.9997V15.9997Z"
        stroke="#C2C2C2" stroke-width="2" stroke-linecap="round" stroke-linejoin="round" />
    <path
        d="M22.6667 29.3333C26.3486 29.3333 29.3333 26.3486 29.3333 22.6667C29.3333 18.9848 26.3486 16 22.6667 16C18.9848 16 16 18.9848 16 22.6667C16 26.3486 18.9848 29.3333 22.6667 29.3333Z"
        stroke="#C2C2C2" stroke-width="2" stroke-linecap="round" stroke-linejoin="round" />
    <path
        d="M38.736 33.6565L16 58.6671H48.3547C51.0896 58.6671 53.7125 57.5807 55.6464 55.6468C57.5802 53.7129 58.6667 51.09 58.6667 48.3551V48.0005C58.6667 46.7578 58.2 46.2805 57.36 45.3605L46.6133 33.6405C46.1125 33.0941 45.5032 32.6581 44.8245 32.3604C44.1457 32.0626 43.4123 31.9096 42.6711 31.9111C41.9299 31.9126 41.1972 32.0686 40.5197 32.3691C39.8421 32.6696 39.2346 33.1081 38.736 33.6565V33.6565Z"
        stroke="#C2C2C2" stroke-width="2" stroke-linecap="round" stroke-linejoin="round" />
</svg>