<svg xmlns="http://www.w3.org/2000/svg" viewBox="0 0 1440 320"><path fill="#F1F3F5" fill-opacity="1" d="M0,288L0,192L65.5,192L65.5,128L130.9,128L130.9,32L196.4,32L196.4,160L261.8,160L261.8,64L327.3,64L327.3,128L392.7,128L392.7,192L458.2,192L458.2,160L523.6,160L523.6,96L589.1,96L589.1,128L654.5,128L654.5,96L720,96L720,64L785.5,64L785.5,192L850.9,192L850.9,0L916.4,0L916.4,192L981.8,192L981.8,0L1047.3,0L1047.3,224L1112.7,224L1112.7,160L1178.2,160L1178.2,288L1243.6,288L1243.6,288L1309.1,288L1309.1,64L1374.5,64L1374.5,64L1440,64L1440,0L1374.5,0L1374.5,0L1309.1,0L1309.1,0L1243.6,0L1243.6,0L1178.2,0L1178.2,0L1112.7,0L1112.7,0L1047.3,0L1047.3,0L981.8,0L981.8,0L916.4,0L916.4,0L850.9,0L850.9,0L785.5,0L785.5,0L720,0L720,0L654.5,0L654.5,0L589.1,0L589.1,0L523.6,0L523.6,0L458.2,0L458.2,0L392.7,0L392.7,0L327.3,0L327.3,0L261.8,0L261.8,0L196.4,0L196.4,0L130.9,0L130.9,0L65.5,0L65.5,0L0,0L0,0Z"></path></svg>