<svg xmlns="http://www.w3.org/2000/svg" viewBox="0 0 1440 320"><path fill="#F1F3F5" fill-opacity="1" d="M0,224L0,128L65.5,128L65.5,32L130.9,32L130.9,96L196.4,96L196.4,32L261.8,32L261.8,96L327.3,96L327.3,32L392.7,32L392.7,288L458.2,288L458.2,64L523.6,64L523.6,128L589.1,128L589.1,32L654.5,32L654.5,32L720,32L720,32L785.5,32L785.5,224L850.9,224L850.9,32L916.4,32L916.4,96L981.8,96L981.8,160L1047.3,160L1047.3,160L1112.7,160L1112.7,160L1178.2,160L1178.2,320L1243.6,320L1243.6,96L1309.1,96L1309.1,192L1374.5,192L1374.5,256L1440,256L1440,320L1374.5,320L1374.5,320L1309.1,320L1309.1,320L1243.6,320L1243.6,320L1178.2,320L1178.2,320L1112.7,320L1112.7,320L1047.3,320L1047.3,320L981.8,320L981.8,320L916.4,320L916.4,320L850.9,320L850.9,320L785.5,320L785.5,320L720,320L720,320L654.5,320L654.5,320L589.1,320L589.1,320L523.6,320L523.6,320L458.2,320L458.2,320L392.7,320L392.7,320L327.3,320L327.3,320L261.8,320L261.8,320L196.4,320L196.4,320L130.9,320L130.9,320L65.5,320L65.5,320L0,320L0,320Z"></path></svg>